<svg width="126.363" xmlns="http://www.w3.org/2000/svg" height="122.498" id="screenshot-dbbf6f7a-7186-801c-8008-5797a4451054" viewBox="0 0 126.363 122.498" xmlns:xlink="http://www.w3.org/1999/xlink" fill="none" version="1.1"><g id="shape-dbbf6f7a-7186-801c-8008-5797a4451054" rx="0" ry="0"><g id="shape-dbbf6f7a-7186-801c-8008-57978ae17f25" style="opacity: 1;"><g class="fills" id="fills-dbbf6f7a-7186-801c-8008-57978ae17f25"><path d="M41.95988082885742,28.10492706298828L41.41990280151367,28.67487335205078C39.65848922729492,30.36554718017578,37.97349166870117,32.13397979736328,36.36991500854492,33.97492218017578C36.23991012573242,34.11493682861328,36.06992721557617,34.31488800048828,35.90989303588867,34.49494171142578C31.809919357299805,38.87494659423828,27.789899826049805,43.31488800048828,23.839887619018555,47.81488800048828C18.349897384643555,53.88495635986328,9.029890060424805,60.27497100830078,6.529890060424805,63.44489288330078C3.9698922634124756,66.69489288330078,2.2299020290374756,70.04499053955078,1.1899241209030151,73.36493682861328C0.9999216198921204,73.96491241455078,0.8298776745796204,74.56488800048828,0.6899240612983704,75.15497589111328C0.6299265027046204,75.37494659423828,0.5699289441108704,75.60492706298828,0.5198801159858704,75.82489776611328C-0.33009544014930725,79.60492706298828,-0.12007348239421844,83.27497100830078,1.0198801755905151,86.63495635986328C1.1299265623092651,86.96491241455078,1.2198923826217651,87.29499053955078,1.3498972654342651,87.61493682861328C1.4698923826217651,87.93488311767578,1.6299265623092651,88.24494171142578,1.7698801755905151,88.55487823486328C3.2098824977874756,91.79499053955078,5.549909591674805,94.62494659423828,8.739912033081055,96.82489776611328C8.929914474487305,96.95490264892578,9.129926681518555,97.07489776611328,9.329877853393555,97.20490264892578C9.839887619018555,97.54499053955078,10.369916915893555,97.86493682861328,10.909894943237305,98.18488311767578C13.929914474487305,99.91498565673828,17.479902267456055,101.19489288330078,21.569929122924805,101.83490753173828C25.549909591674805,102.46491241455078,37.67991256713867,103.22492218017578,45.82987594604492,103.94489288330078C51.78989791870117,104.57489776611328,86.75993347167969,102.22492218017578,93.23991394042969,99.68488311767578C105.79991149902344,94.75495147705078,116.18992614746094,88.00495147705078,121.09989929199219,75.84491729736328C122.03990173339844,73.52497100830078,122.76994323730469,71.24494171142578,123.35990905761719,68.98493194580078C123.54991149902344,68.24494171142578,123.70988464355469,67.50495147705078,123.86991882324219,66.77497100830078C125.69987487792969,58.09491729736328,124.91990661621094,49.83490753173828,121.48991394042969,41.96491241455078C118.65989685058594,33.86493682861328,113.63993835449219,27.27497100830078,106.39988708496094,22.13495635986328C105.78990173339844,21.70490264892578,105.16990661621094,21.26496124267578,104.51994323730469,20.85492706298828C102.49699401855469,19.54889678955078,100.38890075683594,18.37958526611328,98.20988464355469,17.35492706298828C86.34989929199219,11.764960289001465,72.05992126464844,11.674872398376465,59.48991012573242,16.57489776611328C52.98991012573242,19.11493682861328,46.94993209838867,22.95490264892578,41.95988082885742,28.10492706298828" style="color: rgb(28, 32, 51); transform: rotate(0deg); fill: rgb(70, 104, 30);"/></g></g><g id="shape-dbbf6f7a-7186-801c-8008-57978ae17f26" style="opacity: 1;"><g class="fills" id="fills-dbbf6f7a-7186-801c-8008-57978ae17f26"><path d="M112.33988952636719,42.25495147705078C112.15989685058594,42.07489776611328,111.96989440917969,41.90497589111328,111.78990173339844,41.73493194580078C110.15409851074219,40.01557159423828,108.43534851074219,38.37689971923828,106.63993835449219,36.82489776611328C106.49992370605469,36.70490264892578,106.29991149902344,36.53498077392578,106.12992858886719,36.38495635986328C101.87992858886719,32.40497589111328,97.55992126464844,28.49494171142578,93.16990661621094,24.65497589111328C87.26994323730469,19.31488800048828,79.09989929199219,8.804877281188965,76.00993347167969,6.374945640563965C72.83988952636719,3.884955406188965,69.53990173339844,2.194891929626465,66.25993347167969,1.1748723983764648C65.65989685058594,0.9849310517311096,65.06993103027344,0.8248968720436096,64.46989440917969,0.6848822236061096C64.24992370605469,0.6249457001686096,64.01994323730469,0.5648871064186096,63.79990768432617,0.5149603486061096C60.03989791870117,-0.3151177763938904,56.36991500854492,-0.12505429983139038,52.97990036010742,0.9649115204811096C52.64988327026367,1.0748968124389648,52.31992721557617,1.1549749374389648,51.98991012573242,1.2849798202514648C51.66990280151367,1.4049749374389648,51.34989547729492,1.5548772811889648,51.03989791870117,1.6848821640014648C47.75992965698242,3.074896812438965,44.85990524291992,5.334906578063965,42.56992721557617,8.424872398376465C42.42991256713867,8.604926109313965,42.30991744995117,8.804877281188965,42.16990280151367,8.994940757751465C41.80991744995117,9.484930992126465,41.47990036010742,9.994940757751465,41.14988327026367,10.524970054626465C39.33988571166992,13.444891929626465,37.94993209838867,16.88495635986328,37.17991256713867,20.84491729736328C36.42991256713867,24.70490264892578,37.36991500854492,37.90497589111328,36.40989303588867,45.80487823486328C35.59989547729492,51.57489776611328,34.89988327026367,57.36493682861328,34.28989791870117,63.15497589111328C34.25992965698242,63.38495635986328,34.22990036010742,63.63495635986328,34.19993209838867,63.82489776611328C33.85673141479492,66.17230987548828,33.62980270385742,68.53522491455078,33.51987838745117,70.90497589111328C33.49991989135742,71.15497589111328,33.46989059448242,71.40497589111328,33.43992233276367,71.66498565673828C32.82987594604492,78.60492706298828,33.89988327026367,85.43488311767578,36.24991989135742,91.72492218017578C40.79990768432617,103.91498565673828,50.25992965698242,114.04499053955078,62.26987838745117,118.83490753173828C64.55992126464844,119.74494171142578,66.81993103027344,120.46491241455078,69.05992126464844,121.04499053955078C69.79991149902344,121.23493194580078,70.52989196777344,121.39496612548828,71.25993347167969,121.54499053955078C79.88993835449219,123.34491729736328,88.15989685058594,122.59491729736328,96.12992858886719,119.29499053955078C104.30992126464844,116.57489776611328,111.04991149902344,111.72492218017578,116.39988708496094,104.71491241455078C116.84989929199219,104.12494659423828,117.29991149902344,103.52497100830078,117.72990417480469,102.89496612548828C119.09330749511719,100.94184112548828,120.32597351074219,98.90070343017578,121.41990661621094,96.78498077392578C127.35990905761719,85.30487823486328,127.87992858886719,71.45490264892578,123.33988952636719,59.26496124267578C120.99992370605469,52.96491241455078,117.33988952636719,47.10492706298828,112.33988952636719,42.25495147705078M115.37992858886719,93.65497589111328C114.41337585449219,95.51093292236328,113.33122253417969,97.30451202392578,112.13993835449219,99.02497100830078C111.76994323730469,99.56488800048828,111.37992858886719,100.07489776611328,110.98991394042969,100.59491729736328C106.73991394042969,106.17487335205078,101.58988952636719,110.02497100830078,95.26994323730469,112.38495635986328L93.75993347167969,112.91498565673828C93.75993347167969,112.91498565673828,92.69987487792969,113.34491729736328,92.27989196777344,113.50495147705078C85.94987487792969,115.86493682861328,79.53990173339844,116.31488800048828,72.65989685058594,114.88495635986328C72.02989196777344,114.75495147705078,71.39988708496094,114.61493682861328,70.76994323730469,114.45490264892578C68.67991638183594,113.91498565673828,66.72990417480469,113.28498077392578,64.80992126464844,112.51496124267578C54.86991500854492,108.55487823486328,46.58988571166992,99.89496612548828,42.63993453979492,89.34491729736328C40.53989791870117,83.72492218017578,39.72990036010742,77.98493194580078,40.22990036010742,72.26496124267578L40.30991744995117,71.47492218017578C40.42991256713867,69.05487823486328,40.63993453979492,66.89496612548828,40.94993209838867,64.80487823486328L41.06992721557617,63.87494659423828C41.66825485229492,58.15668487548828,42.36503219604492,52.44916534423828,43.15989303588867,46.75495147705078C43.96989059448242,40.14496612548828,43.10990524291992,26.05487823486328,43.86991500854492,22.14496612548828C44.44993209838867,19.16498565673828,45.47990036010742,16.46491241455078,46.93992233276367,14.114935874938965C47.17991256713867,13.724921226501465,47.42991256713867,13.344916343688965,47.69993209838867,12.974921226501465L47.94993209838867,12.614935874938965C49.56992721557617,10.434882164001465,51.47990036010742,8.904974937438965,53.70988082885742,7.954901695251465L54.13993453979492,7.764960289001465L54.62992477416992,7.584906578063965L55.07987594604492,7.444891929626465C57.37992477416992,6.704901695251465,59.81992721557617,6.604926109313965,62.32987594604492,7.164984703063965L62.78989791870117,7.284979820251465C63.35990524291992,7.414984703063965,63.78989791870117,7.544989585876465,64.21989440917969,7.674872398376465C66.85990905761719,8.494940757751465,69.40989685058594,9.864935874938965,71.79991149902344,11.734930992126465C75.31993103027344,14.494940757751465,85.80992126464844,27.17487335205078,88.59989929199219,29.70490264892578C92.93992614746094,33.49494171142578,97.23991394042969,37.38495635986328,101.47990417480469,41.35492706298828L102.19987487792969,41.99494171142578C103.78990173339844,43.37494659423828,105.35990905761719,44.87494659423828,106.86991882324219,46.44489288330078L107.39988708496094,46.95490264892578C111.72990417480469,51.14496612548828,114.87992858886719,56.02497100830078,116.96989440917969,61.64496612548828C120.88993835449219,72.18488311767578,120.28990173339844,84.15497589111328,115.37992858886719,93.65497589111328" style="color: rgb(28, 32, 51); transform: rotate(0deg); fill: rgb(175, 180, 43);"/></g></g><g id="shape-dbbf6f7a-7186-801c-8008-57978ae1db3a" style="opacity: 1;"><g class="fills" id="fills-dbbf6f7a-7186-801c-8008-57978ae1db3a"><path d="M106.86991882324219,46.43488311767578C105.36991882324219,44.86493682861328,103.78990173339844,43.36493682861328,102.19987487792969,41.98493194580078L101.47990417480469,41.34491729736328C97.25419616699219,37.38751983642578,92.96025085449219,33.50360870361328,88.59989929199219,29.69489288330078C85.80992126464844,27.17487335205078,75.32987976074219,14.494940757751465,71.79991149902344,11.724921226501465C69.40989685058594,9.854926109313965,66.85990905761719,8.484930992126465,64.21989440917969,7.664984703063965C63.78989791870117,7.534979820251465,63.35990524291992,7.404974937438965,62.78989791870117,7.274970054626465L62.32987594604492,7.154974937438965C59.81992721557617,6.604926109313965,57.37992477416992,6.694891929626465,55.07987594604492,7.434882164001465L54.62992477416992,7.574896812438965L54.13993453979492,7.754950523376465L53.70988082885742,7.944891929626465C51.47990036010742,8.894965171813965,49.56992721557617,10.414984703063965,47.94993209838867,12.604926109313965L47.69993209838867,12.964911460876465C47.43992233276367,13.334906578063965,47.18992233276367,13.714911460876465,46.93992233276367,14.104926109313965C45.47990036010742,16.45490264892578,44.44993209838867,19.15497589111328,43.86991500854492,22.13495635986328C43.10990524291992,26.04499053955078,43.96989059448242,40.13495635986328,43.15989303588867,46.74494171142578C42.37992477416992,52.29499053955078,41.67991256713867,58.05487823486328,41.06992721557617,63.86493682861328L40.94993209838867,64.79499053955078C40.64988327026367,66.87494659423828,40.43992233276367,69.04499053955078,40.30991744995117,71.46491241455078L40.22990036010742,72.25495147705078C39.72990036010742,77.97492218017578,40.53989791870117,83.71491241455078,42.63993453979492,89.33490753173828C46.57987594604492,99.88495635986328,54.86991500854492,108.54499053955078,64.80992126464844,112.50495147705078C66.72990417480469,113.27497100830078,68.67991638183594,113.90497589111328,70.76994323730469,114.44489288330078C71.40989685058594,114.60492706298828,72.03990173339844,114.74494171142578,72.65989685058594,114.87494659423828C79.52989196777344,116.30487823486328,85.94987487792969,115.85492706298828,92.27989196777344,113.49494171142578C92.69987487792969,113.33490753173828,93.75993347167969,112.90497589111328,93.75993347167969,112.90497589111328L95.26994323730469,112.37494659423828C101.59989929199219,110.01496124267578,106.73991394042969,106.15497589111328,110.98991394042969,100.58490753173828C111.37992858886719,100.07489776611328,111.76994323730469,99.55487823486328,112.13993835449219,99.01496124267578C113.37992858886719,97.23493194580078,114.43992614746094,95.47492218017578,115.37992858886719,93.64496612548828C120.29991149902344,84.14496612548828,120.88993835449219,72.17487335205078,116.96989440917969,61.61493682861328C114.87992858886719,55.99494171142578,111.72990417480469,51.12494659423828,107.39988708496094,46.92487335205078Z" style="color: rgb(28, 32, 51); transform: rotate(0deg); fill: rgb(255, 246, 159);"/></g></g><g id="shape-dbbf6f7a-7186-801c-8008-57978ae1db3b" style="opacity: 1;"><g class="fills" id="fills-dbbf6f7a-7186-801c-8008-57978ae1db3b"><path d="M99.49992370605469,70.21491241455078C103.33988952636719,80.51496124267578,98.09989929199219,91.98493194580078,87.79991149902344,95.81488800048828C77.49992370605469,99.64496612548828,66.02989196777344,94.41498565673828,62.19993209838867,84.11493682861328C58.36991500854492,73.81488800048828,64.69987487792969,54.14496612548828,71.63993835449219,52.03498077392578C78.77989196777344,49.87494659423828,95.65989685058594,59.91498565673828,99.49992370605469,70.21491241455078" style="color: rgb(28, 32, 51); transform: rotate(0deg); fill: rgb(133, 92, 82);"/></g></g><g id="shape-dbbf6f7a-7186-801c-8008-57978ae1db3c" style="opacity: 1;"><g class="fills" id="fills-dbbf6f7a-7186-801c-8008-57978ae1db3c"><path d="M83.29991149902344,62.24494171142578C82.65989685058594,64.48493194580078,86.85990905761719,68.73493194580078,87.52989196777344,75.28498077392578C88.03990173339844,80.23493194580078,90.57987976074219,82.47492218017578,93.60990905761719,81.85492706298828C96.68992614746094,81.23493194580078,97.86991882324219,75.12494659423828,94.43992614746094,69.39496612548828C91.10990905761719,63.81488800048828,84.35990905761719,58.53498077392578,83.29991149902344,62.24494171142578" style="color: rgb(28, 32, 51); transform: rotate(0deg); fill: rgb(215, 204, 200);"/></g></g></g></svg>